<svg version="1.1" id="Layer_1" xmlns="http://www.w3.org/2000/svg" xmlns:xlink="http://www.w3.org/1999/xlink" x="0px" y="0px" width="100%" viewBox="0 0 500 500" enable-background="new 0 0 500 500" xml:space="preserve">

<path fill="#020201" opacity="1.000000" stroke="none" d="
M108.365028,295.644806 
	C106.556099,293.321014 104.747169,290.997192 102.743500,288.423218 
	C104.081825,287.658081 105.306496,286.957916 106.903542,286.044891 
	C102.700584,284.420776 98.717964,282.881805 93.961441,281.043793 
	C101.428673,276.866730 107.707016,276.112091 115.110161,277.674805 
	C126.274040,280.031342 137.797409,280.736450 149.192413,281.905090 
	C151.607132,282.152771 154.255997,281.767059 156.577988,281.005493 
	C173.633896,275.411346 190.657288,269.714874 207.631668,263.878265 
	C210.911957,262.750336 213.865280,260.705658 217.085129,259.360931 
	C224.568100,256.235718 231.920151,252.526505 239.697586,250.445328 
	C249.441925,247.837830 254.905853,241.978607 256.920563,232.530136 
	C260.917175,213.786575 261.066956,194.817947 259.493774,175.832230 
	C257.820923,155.643295 252.180481,135.768509 254.146896,115.305855 
	C255.398102,102.285736 256.042145,89.117065 262.255890,77.020294 
	C270.632019,60.713818 284.598511,53.022636 301.903381,50.050880 
	C302.722778,49.910168 303.569611,49.927086 304.387451,49.780338 
	C311.044373,48.585941 316.906158,49.046471 323.238373,52.917557 
	C332.661041,58.677959 343.257538,62.489323 353.185730,67.466789 
	C356.829926,69.293785 359.993622,72.079109 363.376526,74.427284 
	C363.151886,75.126312 362.927246,75.825340 362.702606,76.524361 
	C360.378204,76.969139 357.967957,78.051735 355.743713,77.752335 
	C343.766510,76.140121 334.247437,82.357399 324.255005,87.145554 
	C318.149780,90.071060 312.242401,93.566521 305.888947,95.781250 
	C295.633820,99.356071 290.669678,106.123734 289.838867,116.841301 
	C288.035034,140.111343 288.063049,163.314957 296.994568,185.218124 
	C305.327423,205.653214 318.003021,223.769714 330.888885,241.602081 
	C335.043793,247.351959 340.957306,252.069733 344.115265,258.255676 
	C352.863251,275.391663 350.584015,292.508545 339.678314,307.784271 
	C331.487732,319.256927 322.078766,329.979279 312.278717,340.134827 
	C307.087006,345.514862 300.098969,349.295074 293.583099,353.237610 
	C276.909088,363.326660 262.389618,375.989990 249.416901,390.358704 
	C246.791534,393.266602 245.293686,398.390839 245.482574,402.389008 
	C245.862717,410.435211 247.725647,418.415863 249.086456,426.404877 
	C249.233704,427.269318 250.428726,428.769226 250.589966,428.699890 
	C256.690460,426.077972 261.798889,431.185394 267.836243,430.689301 
	C276.532715,429.974731 285.356964,430.769226 294.123535,431.027069 
	C294.992126,431.052643 295.838776,431.823120 297.215363,432.505524 
	C293.597595,433.412598 290.546448,434.177582 286.128998,435.285126 
	C289.032074,437.596954 290.760773,438.973602 292.927521,440.699066 
	C278.026215,441.915375 263.561646,442.652985 249.089828,440.431519 
	C247.620087,440.205902 246.126068,439.852356 244.661575,439.925171 
	C235.507156,440.380249 235.275238,440.260223 232.046249,431.385406 
	C230.559128,431.385406 228.996704,431.385406 226.216675,431.385406 
	C237.780701,422.378632 234.648788,411.164246 234.145187,400.402954 
	C228.443451,399.262848 228.679169,403.181671 227.321991,406.522247 
	C222.556381,418.252472 224.298004,429.669861 227.612503,441.247620 
	C228.509247,444.380035 230.084763,445.197388 233.043335,444.625519 
	C235.758728,444.100677 238.619858,442.718597 240.773331,446.210846 
	C241.186462,446.880829 243.602051,446.338287 245.093292,446.317444 
	C253.238663,446.203644 261.384338,445.984192 269.528809,446.024231 
	C271.507935,446.033936 273.482941,446.884338 275.343079,448.151031 
	C272.431854,448.998840 269.520630,449.846680 265.391022,451.049347 
	C268.010498,453.246704 269.768829,454.721680 271.982574,456.578674 
	C256.442596,457.741425 241.479645,459.031830 226.576340,455.746368 
	C225.927902,455.603424 225.206146,455.249176 224.629852,455.404999 
	C217.076202,457.447235 212.129257,455.207550 211.326614,446.345123 
	C209.209839,447.781097 207.890091,448.676361 205.732193,450.140228 
	C206.404495,447.910950 206.381256,445.896118 207.298569,445.278687 
	C214.359421,440.526215 213.441132,433.058319 213.647141,426.266785 
	C213.817291,420.657440 212.888855,414.974335 211.972809,409.401886 
	C211.752182,408.059753 209.732956,406.129089 208.405090,406.012268 
	C203.646118,405.593536 198.796509,406.181976 194.042542,405.735718 
	C188.995789,405.261932 183.782196,404.705139 179.060120,403.015015 
	C168.827103,399.352325 157.610962,396.643066 149.114456,390.393219 
	C139.328079,383.194580 128.298233,376.304321 122.425209,364.814026 
	C120.605080,361.253021 119.560135,356.886658 119.561020,352.889343 
	C119.562851,344.648010 116.432259,337.880554 112.381950,330.974182 
	C107.839256,323.228271 104.390617,314.840729 100.465958,306.732391 
	C100.947304,306.370392 101.428650,306.008423 101.909996,305.646454 
	C104.039032,306.251099 106.168068,306.855743 109.410477,307.776581 
	C107.669441,304.213013 106.299583,301.506348 105.020401,298.757507 
	C104.135063,296.854980 103.841827,295.278381 107.442200,296.761414 
	C108.295822,296.941071 108.573891,296.862152 108.851974,296.783203 
	C108.689659,296.403748 108.527344,296.024261 108.365028,295.644806 
M304.487488,63.057755 
	C305.256500,59.649120 302.928955,58.963131 300.559692,59.299156 
	C299.566376,59.440037 297.902435,61.663731 298.137329,62.484161 
	C299.203674,66.208694 301.669617,65.334694 304.487488,63.057755 
z" data-index="1" style="opacity: 1;"></path>

<path fill="#F4C524" opacity="1.000000" stroke="none" d="
M108.155022,295.888977 
	C108.527344,296.024261 108.689659,296.403748 108.851974,296.783203 
	C108.573891,296.862152 108.295822,296.941071 107.784828,296.831726 
	C107.682945,296.473389 107.813972,296.303284 108.155022,295.888977 
z" data-index="3"></path>
</svg>